<?xml version="1.0" encoding="UTF-8"?>
<svg version="1.1" xmlns="http://www.w3.org/2000/svg" width="283" height="242">
<path d="M0 0 C0.67023193 0.24443848 1.34046387 0.48887695 2.03100586 0.74072266 C8.36625385 3.17304064 13.45791536 6.81828324 18.6875 11.125 C19.72648437 10.52171875 20.76546875 9.9184375 21.8359375 9.296875 C43.01792776 -2.88556587 43.01792776 -2.88556587 53.53417969 -3.08374023 C54.49749207 -3.10303085 55.46080444 -3.12232147 56.45330811 -3.14219666 C60.93139295 -3.20093423 65.40932407 -3.24941905 69.88769531 -3.2800293 C72.21857757 -3.3013503 74.54938576 -3.335132 76.87988281 -3.38256836 C94.67267992 -3.74061591 112.17155457 -2.49932365 128.67089844 4.81860352 C132.3807116 6.42520842 133.88333388 6.47230883 137.6875 5.125 C139.48265727 3.6999344 141.14813846 2.17134089 142.8359375 0.62109375 C152.52561689 -7.20833074 169.00071824 -5.73094678 180.6875 -4.875 C188.74600293 -3.29751004 195.17903375 1.51414681 200.1171875 8.00390625 C201.41633025 10.00103563 202.56964933 12.02103191 203.6875 14.125 C204.14253906 14.97964844 204.59757812 15.83429687 205.06640625 16.71484375 C210.29948195 26.86790515 211.80001612 37.59413908 208.453125 48.7109375 C206.21613747 55.32510395 203.46023619 61.72189451 200.6875 68.125 C205.21890653 69.05880961 205.21890653 69.05880961 209.6875 68.125 C211.875 69.5625 211.875 69.5625 213.6875 71.125 C213.3575 72.775 213.0275 74.425 212.6875 76.125 C212.0275 76.125 211.3675 76.125 210.6875 76.125 C210.7803125 77.424375 210.7803125 77.424375 210.875 78.75 C210.6875 82.125 210.6875 82.125 209.25 84.875 C207.48343049 88.54946459 207.23327467 91.38110891 206.9296875 95.39453125 C206.67216375 98.29790389 206.24840538 101.12841824 205.75 104 C205.59660156 104.88429688 205.44320313 105.76859375 205.28515625 106.6796875 C204.6875 109.125 204.6875 109.125 203.625 110.94140625 C202.19377711 114.27496289 202.51929283 117.62869191 202.625 121.1875 C202.8081177 128.76314691 202.8081177 128.76314691 201.6875 132.125 C201.873125 132.970625 202.05875 133.81625 202.25 134.6875 C202.394375 135.491875 202.53875 136.29625 202.6875 137.125 C202.0275 137.785 201.3675 138.445 200.6875 139.125 C199.13922018 142.50011143 199.13922018 142.50011143 198.6875 146.125 C199.450625 146.558125 200.21375 146.99125 201 147.4375 C205.90817565 150.51937773 207.61569597 155.97102183 209.82421875 161.1484375 C210.10852249 161.81283844 210.39282623 162.47723938 210.68574524 163.16177368 C211.28200532 164.56102827 211.87605965 165.96122464 212.46801758 167.36230469 C213.37139283 169.49149815 214.29192678 171.61274171 215.21289062 173.734375 C215.79274511 175.10110546 216.37155609 176.4682792 216.94921875 177.8359375 C217.22416672 178.46221039 217.49911469 179.08848328 217.78239441 179.73373413 C219.5545934 184.0051735 220.13950465 187.51965642 219.6875 192.125 C217.375 194.875 217.375 194.875 214.6875 197.125 C214.254375 197.74375 213.82125 198.3625 213.375 199 C210.85031098 200.68312601 208.62168961 200.06080654 205.74609375 199.5859375 C202.98872199 198.96853737 200.35996415 198.03606733 197.6875 197.125 C196.3675 197.125 195.0475 197.125 193.6875 197.125 C193.6875 196.465 193.6875 195.805 193.6875 195.125 C192.45 195.16625 191.2125 195.2075 189.9375 195.25 C184.07131252 195.26871192 178.43487122 194.21418033 172.6875 193.125 C172.45804688 193.86492187 172.22859375 194.60484375 171.9921875 195.3671875 C170.41993937 198.69056228 168.72635142 200.02871617 165.8125 202.25 C161.50957319 205.62241184 157.47373312 209.12298003 153.5 212.875 C149.18208618 216.90758001 144.87664268 220.29249854 139.6875 223.125 C138.83285156 223.63933594 138.83285156 223.63933594 137.9609375 224.1640625 C134.15258238 226.44211967 130.22846963 228.28968434 126.15625 230.046875 C122.49132276 231.6473812 118.88172178 233.36661749 115.265625 235.07421875 C111.17874841 236.73993057 107.39232858 237.26491453 103 237.25 C102.23300781 237.25257813 101.46601563 237.25515625 100.67578125 237.2578125 C98.6875 237.125 98.6875 237.125 96.6875 236.125 C95.26007501 236.05049424 93.82912216 236.03849243 92.39990234 236.05908203 C91.51072113 236.06884064 90.62153992 236.07859924 89.70541382 236.08865356 C88.25408554 236.11051224 88.25408554 236.11051224 86.7734375 236.1328125 C84.71094271 236.15036274 82.64844234 236.16726764 80.5859375 236.18359375 C77.34554387 236.21425533 74.10543417 236.2493771 70.86523438 236.29638672 C34.92073331 236.79037384 34.92073331 236.79037384 22.31640625 226.1171875 C19.54485754 224.01690542 17.05838583 222.90576105 13.8125 221.6875 C8.7763941 219.67923691 4.95631512 217.43550968 0.6875 214.125 C-1.91535105 212.5378957 -4.53342395 211.00012994 -7.1875 209.5 C-20.546682 199.34702168 -24.70910454 181.61212571 -28.90234375 166.1875 C-30.11345254 161.75259439 -31.50168922 157.4074308 -33 153.0625 C-33.77307739 150.75074923 -34.54411938 148.43831613 -35.3125 146.125 C-35.63476562 145.18527344 -35.95703125 144.24554688 -36.2890625 143.27734375 C-38.02856751 137.49796028 -38.3109969 132.53554939 -38.00244141 126.56396484 C-37.45936065 114.83883057 -39.77304628 109.06116556 -46.92675781 99.98486328 C-55.06818076 89.05791472 -59.44668635 76.30186951 -62.3125 63.125 C-62.51230469 62.20847656 -62.71210937 61.29195313 -62.91796875 60.34765625 C-64.86323684 44.45809013 -65.65139165 23.49710712 -55.78515625 9.859375 C-40.52308827 -8.11504989 -21.17885331 -7.74747796 0 0 Z M185.6875 86.125 C185.3575 86.455 185.0275 86.785 184.6875 87.125 C184.72530073 88.77369317 184.84220302 90.42094032 185 92.0625 C185.07863281 92.95839844 185.15726563 93.85429688 185.23828125 94.77734375 C185.4944014 97.30631103 185.4944014 97.30631103 187.6875 99.125 C187.3575 94.835 187.0275 90.545 186.6875 86.125 C186.3575 86.125 186.0275 86.125 185.6875 86.125 Z " fill="#F29BAD" transform="translate(63.3125,4.875)"/>
<path d="M0 0 C5.86257754 5.89189043 8.14743475 10.6520453 8.625 19.0625 C8.69976562 20.37734375 8.77453125 21.6921875 8.8515625 23.046875 C9.02277564 27.60655119 9.03598978 32.1457232 8.9375 36.70703125 C8.83918313 39.03059708 8.83918313 39.03059708 10 41 C11.25659424 41.03758423 11.25659424 41.03758423 12.53857422 41.07592773 C15.64352256 41.17100357 18.74830181 41.27024025 21.85302734 41.37231445 C23.85894807 41.43698251 25.86502228 41.49683106 27.87109375 41.55664062 C29.75634766 41.61948242 29.75634766 41.61948242 31.6796875 41.68359375 C32.84226074 41.72025146 34.00483398 41.75690918 35.20263672 41.79467773 C38 42 38 42 40 43 C39.7834375 42.21238281 39.566875 41.42476562 39.34375 40.61328125 C36.39169234 29.06472234 34.70891971 17.71813679 41 7 C44.26292228 2.67387832 47.95810898 0.06259178 53 -2 C53.66 -2 54.32 -2 55 -2 C55 -2.66 55 -3.32 55 -4 C59.32435205 -6.88290136 62.92794406 -6.54755149 68 -6 C76.74819239 -4.13300772 81.68921322 1.05605556 87 8 C88.79519543 11.59039087 88.27028409 15.73327672 88.3125 19.6875 C88.34150391 20.57373047 88.37050781 21.45996094 88.40039062 22.37304688 C88.46968725 29.57456561 86.91032401 33.47173048 82.2890625 39.07421875 C76.38789928 44.79529952 70.76351815 48.32292478 63 51 C63 51.66 63 52.32 63 53 C63.56847656 53.22042969 64.13695312 53.44085938 64.72265625 53.66796875 C73.30482127 58.68772565 78.56295699 70.87639676 81 80 C81.12109375 82.87890625 81.12109375 82.87890625 81 85 C74.57975477 82.85991826 71.6190885 74.41164722 68.75 68.6875 C66.13457557 63.30900621 66.13457557 63.30900621 64.984375 60.66796875 C64.65953125 60.11753906 64.3346875 59.56710938 64 59 C62.7625 58.814375 62.7625 58.814375 61.5 58.625 C57.18022082 57.85361086 54.52486012 55.94492869 50.953125 53.47265625 C42.58027259 49.29730524 33.21186921 49.69113006 24.0625 49.75 C22.86431641 49.74226563 21.66613281 49.73453125 20.43164062 49.7265625 C7.88110129 49.23281559 7.88110129 49.23281559 -3.0625 53.9375 C-4.0215625 54.9584375 -4.0215625 54.9584375 -5 56 C-7.56747965 56.80945171 -10.12464556 57.4374248 -12.7578125 57.99609375 C-15.19466842 58.79045599 -15.19466842 58.79045599 -15.9921875 61.1796875 C-16.32476562 62.11039062 -16.65734375 63.04109375 -17 64 C-18.62333632 66.28967201 -20.25982 68.49238723 -22 70.6875 C-22.45117188 71.26822266 -22.90234375 71.84894531 -23.3671875 72.44726562 C-25.15936899 74.74051561 -26.94021831 76.94021831 -29 79 C-29.46162427 81.43252661 -29.46162427 81.43252661 -29.625 84.125 C-29.69976562 85.03507812 -29.77453125 85.94515625 -29.8515625 86.8828125 C-29.90054688 87.58148438 -29.94953125 88.28015625 -30 89 C-30.66 89 -31.32 89 -32 89 C-33.82107155 82.7817069 -34.28556033 75.06495837 -31.75 69 C-26.72982807 60.46570772 -18.20921931 52.54200743 -9 49 C-10.134375 48.82984375 -11.26875 48.6596875 -12.4375 48.484375 C-24.23032019 46.62764979 -32.65574534 45.08080815 -40 35 C-44.09448175 28.85827738 -43.88371805 20.66573174 -42.5390625 13.56640625 C-40.12326842 5.36691691 -34.94475178 -1.12389769 -28 -6 C-19.57470523 -9.18794937 -6.90199975 -5.22313495 0 0 Z " fill="#DF529E" transform="translate(116,54)"/>
<path d="M0 0 C1.13308594 0.04253906 2.26617187 0.08507812 3.43359375 0.12890625 C13.39862306 0.63305736 22.90488048 1.37274651 30 9 C32.01760905 13.67827224 32.21764337 17.90669917 32.0546875 22.91796875 C32.02941862 24.43423606 32.00469499 25.95051254 31.98046875 27.46679688 C31.93067082 29.83712888 31.87445475 32.20697565 31.80810547 34.5769043 C31.7478032 36.87812426 31.7122137 39.17871267 31.6796875 41.48046875 C31.65276825 42.18987106 31.625849 42.89927338 31.59811401 43.63017273 C31.53028947 45.86767447 31.53028947 45.86767447 32 49 C33.86914105 51.0126509 33.86914105 51.0126509 36 52 C35.67 52.99 35.34 53.98 35 55 C28.3366481 57.35177126 21.15584832 58.2999275 14.12109375 58.69140625 C11.96075114 58.8852345 11.96075114 58.8852345 10.09375 60.00390625 C2.42886831 63.65044511 -8.7930249 60.72971245 -16.8125 59.25 C-17.68318115 59.09321777 -18.5538623 58.93643555 -19.45092773 58.77490234 C-25.13197757 57.64851988 -31.14789387 56.29339148 -36 53 C-37.38551284 50.25033299 -37.60308745 48.12568636 -38 45 C-38.495 43.515 -38.495 43.515 -39 42 C-40.28866621 27.1656947 -38.24603684 18.02924497 -29.73828125 5.73046875 C-26.47921009 2.48069594 -23.77888937 1.72529269 -19.375 1.125 C-18.66424316 1.01188477 -17.95348633 0.89876953 -17.22119141 0.78222656 C-11.44433664 -0.07757222 -5.83373682 -0.33640395 0 0 Z " fill="#F49CAE" transform="translate(142,121)"/>
<path d="M0 0 C5.60408142 2.28314428 9.29902507 6.70854673 12 12 C12.46069336 14.89990234 12.46069336 14.89990234 12.58984375 18.0859375 C12.64946289 19.25697021 12.70908203 20.42800293 12.77050781 21.63452148 C12.82561523 22.86887939 12.88072266 24.1032373 12.9375 25.375 C13.78521424 39.7613712 15.99751268 51.27223113 22.43359375 64.2734375 C24.5389686 68.91178035 25.6526252 73.83694241 26.9375 78.75 C29.05167023 86.54468178 31.03537526 92.3225609 37 98 C38.19882813 99.33417969 38.19882813 99.33417969 39.421875 100.6953125 C49.54494978 111.45263836 62.98096564 117.4380121 76 124 C76.92603027 124.48637939 77.85206055 124.97275879 78.80615234 125.47387695 C97.71773497 135.30910561 123.81745414 131.7825035 144.515625 130.203125 C147.84152529 130.00923844 151.04991268 130.09809246 154.375 130.25 C160.77456153 130.32911546 165.45200946 127.96858221 171 125 C172.051875 124.566875 173.10375 124.13375 174.1875 123.6875 C176.93538215 122.03877071 178.61659268 120.42854984 180.8125 118.125 C184.22908016 114.54416118 187.59051228 112.27686389 192.01953125 110.10546875 C194.06038199 108.96629565 195.43550843 107.72242131 197 106 C196.01 102.535 196.01 102.535 195 99 C211.95744681 90.65957447 211.95744681 90.65957447 222 92 C221.38125 92.061875 220.7625 92.12375 220.125 92.1875 C219.42375 92.455625 218.7225 92.72375 218 93 C217.31879905 94.66077918 216.65411685 96.32836805 216 98 C213.8203125 100.0703125 213.8203125 100.0703125 211.125 102.125 C206.82207319 105.49741184 202.78623312 108.99798003 198.8125 112.75 C194.49458618 116.78258001 190.18914268 120.16749854 185 123 C184.43023437 123.34289062 183.86046875 123.68578125 183.2734375 124.0390625 C179.46508238 126.31711967 175.54096963 128.16468434 171.46875 129.921875 C167.80382276 131.5223812 164.19422178 133.24161749 160.578125 134.94921875 C156.49124841 136.61493057 152.70482858 137.13991453 148.3125 137.125 C147.54550781 137.12757813 146.77851563 137.13015625 145.98828125 137.1328125 C144 137 144 137 142 136 C140.57257501 135.92549424 139.14162216 135.91349243 137.71240234 135.93408203 C136.82322113 135.94384064 135.93403992 135.95359924 135.01791382 135.96365356 C133.56658554 135.98551224 133.56658554 135.98551224 132.0859375 136.0078125 C130.02344271 136.02536274 127.96094234 136.04226764 125.8984375 136.05859375 C122.65804387 136.08925533 119.41793417 136.1243771 116.17773438 136.17138672 C80.23323331 136.66537384 80.23323331 136.66537384 67.62890625 125.9921875 C64.85735754 123.89190542 62.37088583 122.78076105 59.125 121.5625 C54.0888941 119.55423691 50.26881512 117.31050968 46 114 C43.39714895 112.4128957 40.77907605 110.87512994 38.125 109.375 C24.765818 99.22202168 20.60339546 81.48712571 16.41015625 66.0625 C15.19904746 61.62759439 13.81081078 57.2824308 12.3125 52.9375 C11.53942261 50.62574923 10.76838062 48.31331613 10 46 C9.67773438 45.06027344 9.35546875 44.12054688 9.0234375 43.15234375 C6.98995484 36.39624015 7.01524642 30.34845519 7.25 23.375 C7.49787051 15.61248785 7.03347809 10.7029346 1.53125 4.7421875 C0 3 0 3 0 0 Z " fill="#DD519C" transform="translate(18,105)"/>
<path d="M0 0 C3.125 0.375 3.125 0.375 5.1875 2.375 C6.54487789 6.71860924 5.07340317 9.41100733 3.125 13.375 C2.733125 14.055625 2.34125 14.73625 1.9375 15.4375 C0.91149465 17.53396698 0.91149465 17.53396698 1.125 20.6875 C1.125 24.65096133 0.25331939 27.59181146 -0.875 31.375 C-1.06610331 32.7676981 -1.23255885 34.16398686 -1.375 35.5625 C-1.875 39.375 -1.875 39.375 -2.90234375 41.1171875 C-4.3402315 44.45493498 -4.04470745 47.74866459 -3.9375 51.3125 C-3.82598414 55.81856681 -3.97983455 59.94670364 -4.875 64.375 C-4.545 65.365 -4.215 66.355 -3.875 67.375 C-4.865 68.365 -4.865 68.365 -5.875 69.375 C-6.184375 70.2 -6.49375 71.025 -6.8125 71.875 C-7.875 74.375 -7.875 74.375 -10.875 76.375 C-10.875 77.035 -10.875 77.695 -10.875 78.375 C-9.885 78.705 -8.895 79.035 -7.875 79.375 C-2.79541727 87.4420511 0.47526435 96.80358279 4 105.625 C4.50214875 106.87127734 5.00475098 108.11737207 5.5078125 109.36328125 C6.7179829 112.36543475 7.92362537 115.36931847 9.125 118.375 C4.859375 122.859375 4.859375 122.859375 0.875 123.125 C-0.3625 123.2075 -1.6 123.29 -2.875 123.375 C-3.11734375 122.54097656 -3.3596875 121.70695312 -3.609375 120.84765625 C-5.42732139 114.74355163 -7.33276593 108.90340022 -10.140625 103.1796875 C-10.875 101.375 -10.875 101.375 -10.875 98.375 C-11.535 98.375 -12.195 98.375 -12.875 98.375 C-13.143125 97.240625 -13.41125 96.10625 -13.6875 94.9375 C-14.079375 93.761875 -14.47125 92.58625 -14.875 91.375 C-15.865 91.045 -16.855 90.715 -17.875 90.375 C-17.43974778 87.76348668 -17.02468202 85.64941704 -15.75 83.3125 C-14.651385 80.8798525 -14.97190945 79.83797424 -15.875 77.375 C-16.205 76.715 -16.535 76.055 -16.875 75.375 C-16.79570995 73.31763187 -16.71307309 71.26029705 -16.60766602 69.20410156 C-16.09326081 61.61703211 -16.09326081 61.61703211 -18.46484375 54.6171875 C-19.72978374 53.33972335 -21.03011521 52.09583652 -22.37109375 50.8984375 C-23.875 49.375 -23.875 49.375 -24 46.25 C-22.41613588 42.20234724 -20.62064087 38.52213979 -18.25 34.875 C-15.60932006 30.07376375 -15.85777435 25.34026248 -16.1875 20 C-16.23292571 14.30880749 -15.38035937 11.21105188 -11.60546875 6.9609375 C-9.17043039 4.72927706 -6.731625 3.03582849 -3.875 1.375 C-2.875 0.375 -2.875 0.375 0 0 Z " fill="#C9C7EC" transform="translate(265.875,73.625)"/>
<path d="M0 0 C1.22074219 0.04253906 2.44148438 0.08507812 3.69921875 0.12890625 C17.14268609 0.81197973 24.44210666 3.31934473 34 13 C34.7415332 13.66128906 34.7415332 13.66128906 35.49804688 14.3359375 C42.02106619 21.56300181 41.58511784 32.41436013 41.4375 41.5 C41.44458984 42.76070312 41.45167969 44.02140625 41.45898438 45.3203125 C41.39547664 54.44588584 41.39547664 54.44588584 39.66040039 56.87695312 C38 58 38 58 35 58 C34.67 58.99 34.34 59.98 34 61 C30.125 59.125 30.125 59.125 29 58 C28.94852267 55.56073722 28.95823809 53.14871709 29.0078125 50.7109375 C29.0253474 49.1966215 29.04225386 47.68229812 29.05859375 46.16796875 C29.08941273 43.77827519 29.12472757 41.38895132 29.17138672 38.99951172 C29.21405506 36.69494212 29.23727053 34.39079701 29.2578125 32.0859375 C29.27643341 31.38149506 29.29505432 30.67705261 29.3142395 29.95126343 C29.3404628 24.81218526 28.39325558 21.45332566 26 17 C17.36632918 10.85681115 8.33042224 10.47889375 -2 10 C-2.92039063 9.94585937 -3.84078125 9.89171875 -4.7890625 9.8359375 C-12.91531336 9.56588082 -24.39266889 9.63119876 -31.1796875 14.59375 C-32.80142832 16.64403373 -33.88116701 18.63977634 -35 21 C-35.47824219 21.75925781 -35.95648438 22.51851562 -36.44921875 23.30078125 C-41.19849837 31.66732042 -41.15467901 41.61766256 -40 51 C-39.03631851 53.81245228 -39.03631851 53.81245228 -38 56 C-38.375 58.3125 -38.375 58.3125 -39 60 C-43.42734904 58.6471989 -45.55040063 56.93685614 -48 53 C-48.6875 49.25 -48.6875 49.25 -49 46 C-49.33 45.67 -49.66 45.34 -50 45 C-51.47152122 33.84410838 -52.10773031 24.67252631 -44.97265625 15.3515625 C-42.75424613 12.76531344 -40.44621821 10.37030109 -38 8 C-37.21882813 7.19175781 -37.21882813 7.19175781 -36.421875 6.3671875 C-27.5518372 -1.42910888 -10.88254466 -0.47516968 0 0 Z " fill="#F7D2BB" transform="translate(144,112)"/>
<path d="M0 0 C2.06394575 2.94849393 2.53352178 5.44318816 2 9 C0.625 11.3125 0.625 11.3125 -2 13 C-6.53798862 13.5682351 -10.92947767 13.15571234 -15.4375 12.5 C-22.61455224 11.49269442 -30.30134622 10.93907669 -37 14 C-38.90213885 16.82486387 -39.89212683 19.83824599 -40.9375 23.0625 C-41.23978516 23.88427734 -41.54207031 24.70605469 -41.85351562 25.55273438 C-45.99091956 37.47708904 -44.27288807 52.37048512 -39.828125 64.08984375 C-37.78137842 67.88643232 -35.40780917 71.2972548 -32 74 C-31.34 74 -30.68 74 -30 74 C-29.69819824 73.17910889 -29.39639648 72.35821777 -29.08544922 71.51245117 C-27.94033456 68.41042593 -26.78758418 65.31145048 -25.62988281 62.21411133 C-25.13437712 60.88384201 -24.64176641 59.55249004 -24.15234375 58.2199707 C-20.02892944 47.00310083 -15.43594873 36.4491557 -7.8125 27.125 C-4.9366621 23.54656741 -2.29834223 19.98469985 0 16 C3.35986452 11.23116003 3.35986452 11.23116003 6.25 10.1875 C6.8275 10.125625 7.405 10.06375 8 10 C8.66 11.32 9.32 12.64 10 14 C9.01 14.33 8.02 14.66 7 15 C6.29049633 16.64888652 5.63002233 18.31913889 5 20 C3.91479036 21.59039344 2.78710915 23.15239949 1.625 24.6875 C-1.39321068 28.87807351 -3.28404892 32.86676376 -5.03515625 37.69921875 C-5.9841058 39.96209845 -7.04933032 41.58271972 -8.5625 43.5 C-11.18033677 46.89525496 -12.03548968 50.24189349 -13.12890625 54.34375 C-14.07667107 57.23379518 -15.35422777 59.61863839 -16.875 62.25 C-20.49295811 68.55429201 -22.72895107 75.11651098 -25 82 C-31.03181973 82 -34.03938569 77.98518036 -38.1484375 73.97265625 C-47.71504337 64.18091749 -48.80516232 50.79026209 -49.30859375 37.56640625 C-49.23497311 31.60783333 -47.52002653 26.76619849 -45.25 21.3125 C-44.90195312 20.42755859 -44.55390625 19.54261719 -44.1953125 18.63085938 C-38.10082686 3.36078701 -38.10082686 3.36078701 -34 0 C-30.88045229 -1.11000473 -27.62365813 -1.62761557 -24.375 -2.25 C-23.51003906 -2.435625 -22.64507812 -2.62125 -21.75390625 -2.8125 C-14.30452017 -4.28674132 -6.23595905 -5.10214831 0 0 Z " fill="#DF529E" transform="translate(57,20)"/>
<path d="M0 0 C7.85822015 -0.33102393 16.64198547 0.771775 22.6328125 6.22265625 C29.86490012 14.76323894 30.48316542 24.20442586 29.83056641 34.96875 C29.11111741 42.94131069 27.18456321 50.58721867 24.6328125 58.16015625 C24.35050781 59.37638672 24.35050781 59.37638672 24.0625 60.6171875 C22.37652554 67.77664243 18.81970175 72.05950981 13.6328125 77.16015625 C10.6328125 76.16015625 10.6328125 76.16015625 9.4921875 73.9296875 C9.12609375 72.95386719 8.76 71.97804688 8.3828125 70.97265625 C6.12185089 65.26004912 3.52585803 59.83899806 0.73046875 54.37109375 C-0.95707175 51.03271654 -2.54623145 47.6546404 -4.12109375 44.26171875 C-4.60497559 43.22571533 -5.08885742 42.18971191 -5.58740234 41.12231445 C-6.55316306 39.04922311 -7.51075514 36.9723035 -8.45947266 34.89135742 C-8.90726074 33.93463135 -9.35504883 32.97790527 -9.81640625 31.9921875 C-10.21174561 31.13343018 -10.60708496 30.27467285 -11.0144043 29.38989258 C-12.49724018 26.94579583 -13.98857037 25.70835551 -16.3671875 24.16015625 C-15.7071875 22.84015625 -15.0471875 21.52015625 -14.3671875 20.16015625 C-5.12367344 24.42639351 1.00104128 30.64833516 4.8828125 40.16015625 C5.99994798 43.22054421 7.00876472 46.30966315 8.0078125 49.41015625 C10.08088655 55.83784394 12.91792968 61.98357818 15.6328125 68.16015625 C17.36235925 64.28634855 18.91143387 60.72091593 19.6953125 56.53515625 C20.15673784 54.10058825 20.69725271 51.99918309 21.62109375 49.69140625 C26.05963382 38.58648746 26.32333684 24.46238705 22.6328125 13.16015625 C21.6428125 13.82015625 20.6528125 14.48015625 19.6328125 15.16015625 C17.46875 15.390625 17.46875 15.390625 15.0078125 15.34765625 C14.11964844 15.33347656 13.23148438 15.31929687 12.31640625 15.3046875 C9.8633927 15.17257469 7.49922488 14.88946157 5.0703125 14.53515625 C0.98330779 14.0089634 -2.26455377 14.6566868 -6.2265625 15.66796875 C-9.36266313 16.38904298 -12.17333495 16.47954151 -15.3671875 16.16015625 C-17.0703125 14.921875 -17.0703125 14.921875 -18.3671875 13.16015625 C-18.546875 11.00390625 -18.546875 11.00390625 -18.2421875 8.66015625 C-18.15710938 7.88671875 -18.07203125 7.11328125 -17.984375 6.31640625 C-17.23536739 3.69962018 -16.59598855 2.72516221 -14.3671875 1.16015625 C-9.64055331 0.23044292 -4.79826138 0.32463485 0 0 Z " fill="#DF529E" transform="translate(225.3671875,11.83984375)"/>
<path d="M0 0 C2.875 0.1875 2.875 0.1875 6 1 C7.375 3.5625 7.375 3.5625 8 6 C8.66 6 9.32 6 10 6 C14.42677023 14.18631712 16.9343199 19.7428976 15 29 C9.39 29 3.78 29 -2 29 C-2 28.34 -2 27.68 -2 27 C-10.39077234 27.03424805 -16.65276697 29.2425257 -24.12890625 32.72265625 C-27 34 -27 34 -29 34 C-28.34 35.98 -27.68 37.96 -27 40 C-31.75 43 -31.75 43 -34 43 C-34.66 41.68 -35.32 40.36 -36 39 C-36.66 39.99 -37.32 40.98 -38 42 C-39.485 41.505 -39.485 41.505 -41 41 C-41 42.98 -41 44.96 -41 47 C-41.33 47 -41.66 47 -42 47 C-42.33 44.36 -42.66 41.72 -43 39 C-43.99 39.495 -43.99 39.495 -45 40 C-45.65213292 42.02463255 -45.65213292 42.02463255 -46 44 C-48.475 44.495 -48.475 44.495 -51 45 C-51.12375 45.969375 -51.2475 46.93875 -51.375 47.9375 C-51.58125 48.948125 -51.7875 49.95875 -52 51 C-52.99 51.495 -52.99 51.495 -54 52 C-55.17314026 49.23174812 -56.33870215 46.46071514 -57.5 43.6875 C-57.83386719 42.90181641 -58.16773438 42.11613281 -58.51171875 41.30664062 C-58.82753906 40.54931641 -59.14335937 39.79199219 -59.46875 39.01171875 C-59.90864258 37.96697388 -59.90864258 37.96697388 -60.35742188 36.90112305 C-61 35 -61 35 -61 32 C-58.02148438 32.43945312 -58.02148438 32.43945312 -55.04296875 32.87890625 C-52.7974658 33.13904799 -52.7974658 33.13904799 -50 32 C-49.01 32.66 -48.02 33.32 -47 34 C-47 32.68 -47 31.36 -47 30 C-47.66 30 -48.32 30 -49 30 C-49 29.01 -49 28.02 -49 27 C-49.66 26.67 -50.32 26.34 -51 26 C-42.31034483 27.68965517 -42.31034483 27.68965517 -41 29 C-41 27.02 -41 25.04 -41 23 C-40.34 23 -39.68 23 -39 23 C-38.67 21.35 -38.34 19.7 -38 18 C-34.88570788 20.80286291 -33.43828546 23.09330571 -32 27 C-31.3709375 26.68546875 -30.741875 26.3709375 -30.09375 26.046875 C-29.2378125 25.61890625 -28.381875 25.1909375 -27.5 24.75 C-26.5821875 24.28335938 -25.664375 23.81671875 -24.71875 23.3359375 C-22 22 -22 22 -19.90625 21.1640625 C-10.88217055 17.42868535 -4.19941445 8.58971137 0 0 Z " fill="#EDECEB" transform="translate(242,170)"/>
<path d="M0 0 C2.4375 0.6875 2.4375 0.6875 5 2 C5.8125 4.625 5.8125 4.625 6 7 C5.01 7.33 4.02 7.66 3 8 C3.061875 8.86625 3.12375 9.7325 3.1875 10.625 C3 14 3 14 1.5625 16.75 C-0.20406951 20.42446459 -0.45422533 23.25610891 -0.7578125 27.26953125 C-1.01533625 30.17290389 -1.43909462 33.00341824 -1.9375 35.875 C-2.09089844 36.75929687 -2.24429687 37.64359375 -2.40234375 38.5546875 C-3 41 -3 41 -4.0625 42.81640625 C-5.49372289 46.14996289 -5.16820717 49.50369191 -5.0625 53.0625 C-4.8793823 60.63814691 -4.8793823 60.63814691 -6 64 C-5.814375 64.845625 -5.62875 65.69125 -5.4375 66.5625 C-5.293125 67.366875 -5.14875 68.17125 -5 69 C-5.99 69.99 -5.99 69.99 -7 71 C-8.54827982 74.37511143 -8.54827982 74.37511143 -9 78 C-8.236875 78.433125 -7.47375 78.86625 -6.6875 79.3125 C-1.77932435 82.39437773 -0.07180403 87.84602183 2.13671875 93.0234375 C2.42102249 93.68783844 2.70532623 94.35223938 2.99824524 95.03677368 C3.59450532 96.43602827 4.18855965 97.83622464 4.78051758 99.23730469 C5.68389283 101.36649815 6.60442678 103.48774171 7.52539062 105.609375 C8.10524511 106.97610546 8.68405609 108.3432792 9.26171875 109.7109375 C9.53666672 110.33721039 9.81161469 110.96348328 10.09489441 111.60873413 C11.8670934 115.8801735 12.45200465 119.39465642 12 124 C9.6875 126.75 9.6875 126.75 7 129 C6.566875 129.61875 6.13375 130.2375 5.6875 130.875 C3.16281098 132.55812601 0.93418961 131.93580654 -1.94140625 131.4609375 C-4.69877801 130.84353737 -7.32753585 129.91106733 -10 129 C-11.32 129 -12.64 129 -14 129 C-14 128.34 -14 127.68 -14 127 C-16.97 127 -19.94 127 -23 127 C-23 126.67 -23 126.34 -23 126 C-20.03 126 -17.06 126 -14 126 C-13.45962432 118.54281558 -14.50230474 113.90660407 -17.90625 107.25 C-19 105 -19 105 -19 103 C-19.66 103 -20.32 103 -21 103 C-21.20625 102.195625 -21.4125 101.39125 -21.625 100.5625 C-22.07875 99.716875 -22.5325 98.87125 -23 98 C-26.05272465 97.10169161 -26.05272465 97.10169161 -29 97 C-28.34 95.02 -27.68 93.04 -27 91 C-26.01 91 -25.02 91 -24 91 C-23.67 90.01 -23.34 89.02 -23 88 C-22.67 88.99 -22.34 89.98 -22 91 C-20.9790625 91.9590625 -20.9790625 91.9590625 -19.9375 92.9375 C-18 95 -18 95 -18 99 C-17.34 99 -16.68 99 -16 99 C-14.68323522 102.24828824 -13.37233863 105.49891335 -12.0625 108.75 C-11.68931641 109.67039062 -11.31613281 110.59078125 -10.93164062 111.5390625 C-10.39506836 112.87324219 -10.39506836 112.87324219 -9.84765625 114.234375 C-9.51773682 115.05131836 -9.18781738 115.86826172 -8.84790039 116.70996094 C-8.07597895 118.79479339 -7.4893803 120.83367652 -7 123 C-5.51882199 122.71872579 -4.04006751 122.42466268 -2.5625 122.125 C-1.73878906 121.96257812 -0.91507812 121.80015625 -0.06640625 121.6328125 C0.95646484 121.31957031 0.95646484 121.31957031 2 121 C2.33 120.34 2.66 119.68 3 119 C2.02866139 116.28728505 0.98819929 113.67841496 -0.1484375 111.03515625 C-0.48042145 110.24604355 -0.8124054 109.45693085 -1.15444946 108.64390564 C-2.22068315 106.11362091 -3.29753447 103.58801971 -4.375 101.0625 C-5.44302442 98.53962846 -6.50889603 96.01585807 -7.5741272 93.49180603 C-8.23864456 91.91942226 -8.90522696 90.34790929 -9.57406616 88.77735901 C-10.80880847 85.8719468 -12.00121941 82.99634177 -13 80 C-15.01508358 79.26676204 -15.01508358 79.26676204 -17 79 C-16 76 -16 76 -13 74 C-11.84478498 71.52869082 -11.84478498 71.52869082 -11 69 C-10.67 68.34 -10.34 67.68 -10 67 C-10.165 66.030625 -10.33 65.06125 -10.5 64.0625 C-11 61 -11 61 -10 58 C-10.00566594 55.77045116 -10.05272807 53.54088437 -10.125 51.3125 C-10.18075216 45.2912667 -9.39186157 41.45344439 -7 36 C-6.58565749 33.67968195 -6.25110098 31.34360915 -6 29 C-4.55477855 16.83216783 -4.55477855 16.83216783 -2 13 C-1.29916995 11.09294898 -1.29916995 11.09294898 -0.8125 9.0625 C-0.63332031 8.39347656 -0.45414062 7.72445312 -0.26953125 7.03515625 C0.03233054 4.75588098 -0.40676338 3.19734845 -1 1 C-0.67 0.67 -0.34 0.34 0 0 Z " fill="#C0BDBF" transform="translate(271,73)"/>
<path d="M0 0 C3.25061904 0.43341587 4.95502089 1.44377611 7 4 C7 4.66 7 5.32 7 6 C5.35 6 3.7 6 2 6 C2.99 7.32 3.98 8.64 5 10 C5.99 9.34 6.98 8.68 8 8 C8.495 11.465 8.495 11.465 9 15 C-4.7688964 20.09959126 -18.46201869 20.59328741 -33 21 C-33.78713379 21.02336426 -34.57426758 21.04672852 -35.38525391 21.07080078 C-49.4576218 21.44301945 -49.4576218 21.44301945 -54.8125 17.75 C-56 16 -56 16 -56.625 13.1875 C-55.81779408 9.07074982 -54.23981994 7.88866906 -51.06933594 5.30834961 C-47.60950151 3.12084929 -44.33285381 2.89822939 -40.3125 2.6875 C-39.47614014 2.62248291 -38.63978027 2.55746582 -37.77807617 2.49047852 C-28.54798638 1.83243112 -19.27957579 1.57760904 -10.03051758 1.34057617 C-8.29257935 1.29380737 -8.29257935 1.29380737 -6.51953125 1.24609375 C-4.95875854 1.21020142 -4.95875854 1.21020142 -3.36645508 1.17358398 C-1.04456797 1.2623958 -1.04456797 1.2623958 0 0 Z " fill="#D9509A" transform="translate(166,210)"/>
<path d="M0 0 C4.73069424 2.02488049 7.60024697 4.51559174 10.08984375 9.0390625 C12.11344522 14.48506829 11.81157016 19.39007423 9.4375 24.6328125 C5.34139982 29.03612019 1.15637117 31.60710391 -4.5625 33.4453125 C-9.44404777 33.27097151 -12.33930709 31.3717119 -16.0625 28.3203125 C-20.74606501 23.15638185 -21.42028764 19.92479347 -21.33984375 13.078125 C-20.80503304 7.76014806 -17.79324402 4.84378711 -13.9375 1.5078125 C-8.97354488 -2.26910988 -5.97130466 -1.96781631 0 0 Z " fill="#31222C" transform="translate(101.0625,57.6796875)"/>
<path d="M0 0 C5.73364103 2.65732209 10.13528609 6.27057217 13 12 C13.66409594 17.53413282 12.54374355 20.67655861 9.50390625 25.13671875 C6.10979285 29.34189302 2.36547997 32.7161424 -3.125 33.375 C-8.93513023 32.81272933 -12.79025118 30.49706841 -16.65234375 26.1328125 C-19.06581634 22.6964554 -19.98903182 20.63615471 -20.0625 16.375 C-17.89077376 9.47657547 -13.63185678 5.2585715 -8 1 C-5.06699268 -0.46650366 -3.27962656 -0.36440295 0 0 Z " fill="#31222C" transform="translate(181,59)"/>
<path d="M0 0 C3.79224752 2.35962068 6.9645763 5.23272652 8.4375 9.60546875 C9.52357943 15.81648549 9.7607407 23.09920532 6.8125 28.75 C-1.14450914 39.02050079 -1.14450914 39.02050079 -7.30639648 40.13232422 C-9.7452023 40.31896887 -12.18308338 40.48429821 -14.625 40.625 C-15.8944043 40.73328125 -15.8944043 40.73328125 -17.18945312 40.84375 C-21.30457885 41.0886596 -23.51899836 41.1443806 -27.140625 39.0078125 C-32.46532837 33.13438016 -33.87641347 26.76549451 -33.56640625 18.9453125 C-32.72079371 11.81427066 -31.31104096 4.23573896 -26.125 -1.0625 C-18.6291207 -6.41899744 -7.80784885 -3.06190151 0 0 Z M-27.92578125 11.0234375 C-30.33934008 14.32620221 -31.236994 16.58689108 -31.0625 20.6875 C-29.25707843 27.00647551 -25.85090563 30.63231941 -20.26953125 33.83203125 C-17.010528 35.26892762 -14.68078097 35.33221349 -11.1875 34.75 C-5.61690506 31.85329063 -0.22506767 26.86270302 1.8125 20.75 C2.27951578 16.54685799 2.11711183 14.32537791 0.125 10.5625 C-3.76594335 5.8302716 -7.88109021 2.18127084 -14.0625 1.375 C-20.31457044 2.12524845 -24.13036632 6.34142958 -27.92578125 11.0234375 Z " fill="#EDEDED" transform="translate(192.1875,57.25)"/>
<path d="M0 0 C6.3815603 1.92307889 12.48451479 4.16016276 16.25390625 9.9140625 C20.22875753 17.75881849 19.23501694 25.79920707 17 34 C14.02203449 39.70497888 9.34200362 43.09921071 3.39453125 45.37890625 C-2.19446336 46.82858022 -7.13377194 46.47446476 -12.6875 45.0625 C-17.72467931 41.92614307 -22.11242486 37.3245589 -23.67578125 31.46875 C-24.73729887 23.38586884 -24.18141787 16.1990421 -20 9 C-14.40517899 2.70354834 -8.6561982 -2.16778711 0 0 Z M-18 15 C-19.97436212 18.94872424 -19.43829693 23.69616767 -19 28 C-16.80819876 32.4647803 -14.05219524 35.16346333 -10 38 C-9.38125 38.433125 -8.7625 38.86625 -8.125 39.3125 C-4.13584393 40.60310932 -0.65383174 39.77281857 3.08984375 38.0234375 C7.61529964 35.41097693 10.79533753 32.86862962 13 28 C14.08793489 22.40763293 13.47010451 18.04120038 10.5625 13.125 C6.59322612 7.81068781 1.71258715 5.69071389 -4.6875 4.5 C-10.77363664 5.81592144 -14.41090015 10.28289734 -18 15 Z " fill="#EDEDED" transform="translate(99,51)"/>
<path d="M0 0 C1.98 0 3.96 0 6 0 C10.46131915 8.56809638 14.29195346 17.28264712 17.875 26.25 C18.37714875 27.49627734 18.87975098 28.74237207 19.3828125 29.98828125 C20.5929829 32.99043475 21.79862537 35.99431847 23 39 C18.734375 43.484375 18.734375 43.484375 14.75 43.75 C13.5125 43.8325 12.275 43.915 11 44 C10.63648438 42.74896484 10.63648438 42.74896484 10.265625 41.47265625 C8.44767861 35.36855163 6.54223407 29.52840022 3.734375 23.8046875 C3 22 3 22 3 19 C2.34 19 1.68 19 1 19 C0.731875 17.865625 0.46375 16.73125 0.1875 15.5625 C-0.204375 14.386875 -0.59625 13.21125 -1 12 C-1.99 11.67 -2.98 11.34 -4 11 C-3.39301257 6.87248551 -1.96189209 3.6678852 0 0 Z " fill="#ECECEC" transform="translate(252,153)"/>
<path d="M0 0 C3.08089673 2.77280706 4.68775452 5.06326356 6 9 C7.32 8.67 8.64 8.34 10 8 C10 9.65 10 11.3 10 13 C11.65 12.67 13.3 12.34 15 12 C15 12.66 15 13.32 15 14 C13.02 14.66 11.04 15.32 9 16 C9.66 17.98 10.32 19.96 11 22 C6.25 25 6.25 25 4 25 C3.34 23.68 2.68 22.36 2 21 C1.34 21.99 0.68 22.98 0 24 C-0.99 23.67 -1.98 23.34 -3 23 C-3 24.98 -3 26.96 -3 29 C-3.33 29 -3.66 29 -4 29 C-4.33 26.36 -4.66 23.72 -5 21 C-5.66 21.33 -6.32 21.66 -7 22 C-7.65213292 24.02463255 -7.65213292 24.02463255 -8 26 C-9.65 26.33 -11.3 26.66 -13 27 C-13.12375 27.969375 -13.2475 28.93875 -13.375 29.9375 C-13.58125 30.948125 -13.7875 31.95875 -14 33 C-14.99 33.495 -14.99 33.495 -16 34 C-17.17314026 31.23174812 -18.33870215 28.46071514 -19.5 25.6875 C-19.83386719 24.90181641 -20.16773438 24.11613281 -20.51171875 23.30664062 C-20.82753906 22.54931641 -21.14335937 21.79199219 -21.46875 21.01171875 C-21.76201172 20.31522217 -22.05527344 19.61872559 -22.35742188 18.90112305 C-23 17 -23 17 -23 14 C-20.02148438 14.43945312 -20.02148438 14.43945312 -17.04296875 14.87890625 C-14.7974658 15.13904799 -14.7974658 15.13904799 -12 14 C-11.01 14.66 -10.02 15.32 -9 16 C-9 14.68 -9 13.36 -9 12 C-9.66 12 -10.32 12 -11 12 C-11 11.01 -11 10.02 -11 9 C-11.66 8.67 -12.32 8.34 -13 8 C-4.31034483 9.68965517 -4.31034483 9.68965517 -3 11 C-3 9.02 -3 7.04 -3 5 C-2.34 5 -1.68 5 -1 5 C-0.67 3.35 -0.34 1.7 0 0 Z " fill="#D5D2D1" transform="translate(204,188)"/>
<path d="M0 0 C0.495 0.99 0.495 0.99 1 2 C-0.65 2 -2.3 2 -4 2 C-3.484375 2.763125 -2.96875 3.52625 -2.4375 4.3125 C-1.963125 5.199375 -1.48875 6.08625 -1 7 C-1.33 7.99 -1.66 8.98 -2 10 C-21.02135913 11.31858979 -39.92007813 12.36057419 -59 12 C-59 10.68 -59 9.36 -59 8 C-47.66784759 2.95775503 -37.27621062 2.09438593 -25 1.75 C-22.37372446 1.65625622 -19.74776944 1.55627929 -17.12182617 1.45367432 C-15.50373332 1.39256271 -13.88539145 1.33760942 -12.2668457 1.28997803 C-8.09272579 1.1546908 -4.11354749 0.7982241 0 0 Z " fill="#31222C" transform="translate(172,214)"/>
<path d="M0 0 C2.4375 0.6875 2.4375 0.6875 5 2 C5.8125 4.625 5.8125 4.625 6 7 C5.01 7.33 4.02 7.66 3 8 C3.061875 8.86625 3.12375 9.7325 3.1875 10.625 C3 14 3 14 1.5625 16.75 C-0.20406951 20.42446459 -0.45422533 23.25610891 -0.7578125 27.26953125 C-1.01533625 30.17290389 -1.43909462 33.00341824 -1.9375 35.875 C-2.09089844 36.75929687 -2.24429687 37.64359375 -2.40234375 38.5546875 C-3 41 -3 41 -4.0625 42.81640625 C-5.49372289 46.14996289 -5.16820717 49.50369191 -5.0625 53.0625 C-4.8793823 60.63814691 -4.8793823 60.63814691 -6 64 C-5.814375 64.845625 -5.62875 65.69125 -5.4375 66.5625 C-5.293125 67.366875 -5.14875 68.17125 -5 69 C-5.99 69.99 -5.99 69.99 -7 71 C-8.3492671 73.92341206 -9 75.75207316 -9 79 C-9.99 79 -10.98 79 -12 79 C-12.33 79.99 -12.66 80.98 -13 82 C-13 81.34 -13 80.68 -13 80 C-14.32 79.67 -15.64 79.34 -17 79 C-16 76 -16 76 -13 74 C-11.84478498 71.52869082 -11.84478498 71.52869082 -11 69 C-10.505 68.01 -10.505 68.01 -10 67 C-10.165 66.030625 -10.33 65.06125 -10.5 64.0625 C-11 61 -11 61 -10 58 C-10.00566594 55.77045116 -10.05272807 53.54088437 -10.125 51.3125 C-10.18075216 45.2912667 -9.39186157 41.45344439 -7 36 C-6.58565749 33.67968195 -6.25110098 31.34360915 -6 29 C-4.55477855 16.83216783 -4.55477855 16.83216783 -2 13 C-1.29916995 11.09294898 -1.29916995 11.09294898 -0.8125 9.0625 C-0.63332031 8.39347656 -0.45414062 7.72445312 -0.26953125 7.03515625 C0.03233054 4.75588098 -0.40676338 3.19734845 -1 1 C-0.67 0.67 -0.34 0.34 0 0 Z " fill="#A199D3" transform="translate(271,73)"/>
<path d="M0 0 C3.84407382 1.80140698 7.75097691 3.05108553 11.80078125 4.3125 C11.47078125 5.3025 11.14078125 6.2925 10.80078125 7.3125 C5.20105559 7.03710366 1.26313113 6.22097878 -3.76171875 3.6875 C-8.8783194 1.18668957 -11.7057484 0.91416209 -17.19921875 2.3125 C-18.18921875 2.8075 -18.18921875 2.8075 -19.19921875 3.3125 C-20.07540459 5.85441278 -20.07540459 5.85441278 -20.76171875 8.8125 C-22.10659439 14.21987564 -22.10659439 14.21987564 -23.19921875 15.3125 C-25.125 15.26171875 -25.125 15.26171875 -27.51171875 15 C-28.68154297 14.88205078 -28.68154297 14.88205078 -29.875 14.76171875 C-32.28129146 14.29663721 -34.07055707 13.50591444 -36.19921875 12.3125 C-35.86921875 11.3225 -35.53921875 10.3325 -35.19921875 9.3125 C-32.22921875 9.3125 -29.25921875 9.3125 -26.19921875 9.3125 C-25.80734375 7.889375 -25.41546875 6.46625 -25.01171875 5 C-23.91466246 1.68803385 -23.48930068 0.54456555 -20.69921875 -1.6875 C-12.36745069 -5.02020722 -7.84785699 -3.82081004 0 0 Z " fill="#31222C" transform="translate(190.19921875,37.6875)"/>
<path d="M0 0 C-0.33 0.99 -0.66 1.98 -1 3 C-7.6633519 5.35177126 -14.84415168 6.2999275 -21.87890625 6.69140625 C-24.03924886 6.8852345 -24.03924886 6.8852345 -25.90625 8.00390625 C-33.57113169 11.65044511 -44.7930249 8.72971245 -52.8125 7.25 C-53.68318115 7.09321777 -54.5538623 6.93643555 -55.45092773 6.77490234 C-61.37985455 5.59937328 -66.58518433 3.67580705 -72 1 C-68.04769259 -0.3174358 -64.9116515 0.59071827 -60.9375 1.375 C-54.63214218 2.5468448 -48.41398041 3.64540596 -42 4 C-41.11441406 4.06445312 -40.22882813 4.12890625 -39.31640625 4.1953125 C-27.23052306 4.66680339 -10.75512315 -3.22653695 0 0 Z " fill="#DF529E" transform="translate(178,173)"/>
<path d="M0 0 C2.33524782 2.25740623 4.18705073 4.2805761 6 7 C6 8.32 6 9.64 6 11 C6.66 11 7.32 11 8 11 C9.32861274 14.16013903 10.63484136 17.32908393 11.9375 20.5 C12.49727539 21.8303125 12.49727539 21.8303125 13.06835938 23.1875 C15.26331442 28.56612859 16.42843903 33.2324302 17 39 C18.39493544 40.98842741 18.39493544 40.98842741 20 42 C18.63875 41.7525 18.63875 41.7525 17.25 41.5 C13.88912497 40.89862854 13.88912497 40.89862854 10 41 C10 40.34 10 39.68 10 39 C7.03 39 4.06 39 1 39 C1 38.67 1 38.34 1 38 C3.97 38 6.94 38 10 38 C10.54037568 30.54281558 9.49769526 25.90660407 6.09375 19.25 C5 17 5 17 5 15 C4.34 15 3.68 15 3 15 C2.79375 14.195625 2.5875 13.39125 2.375 12.5625 C1.92125 11.716875 1.4675 10.87125 1 10 C-2.05272465 9.10169161 -2.05272465 9.10169161 -5 9 C-4.34 7.02 -3.68 5.04 -3 3 C-2.01 3 -1.02 3 0 3 C0 2.01 0 1.02 0 0 Z " fill="#8C858A" transform="translate(247,161)"/>
<path d="M0 0 C2.92747165 1.69982225 4.21727349 3.17604027 5.9375 6.125 C6.65744767 10.4921551 6.39048202 14.03784314 4.6875 18.125 C2.9375 20.125 2.9375 20.125 1.0625 21.125 C-1.96642973 21.125 -3.62635788 19.83688365 -6.0625 18.125 C-7.85559961 16.33190039 -7.36057043 13.80124022 -7.4375 11.375 C-7.38895316 4.58653393 -7.38895316 4.58653393 -4.8125 1.8125 C-2.0625 0.125 -2.0625 0.125 0 0 Z " fill="#31222C" transform="translate(129.0625,138.875)"/>
<path d="M0 0 C2.375 1 2.375 1 3.49609375 2.68359375 C4.58842375 5.56249015 4.7476974 7.98628252 4.8125 11.0625 C4.85246094 12.10535156 4.89242187 13.14820313 4.93359375 14.22265625 C4.375 17 4.375 17 2.01953125 18.88671875 C-1.07124249 20.18785688 -2.4830431 20.04731897 -5.625 19 C-7.55464064 17.07035936 -6.88730473 13.75274242 -6.9375 11.1875 C-6.97488281 9.94355469 -7.01226562 8.69960937 -7.05078125 7.41796875 C-6.625 4 -6.625 4 -4.76953125 1.55078125 C-2.625 0 -2.625 0 0 0 Z " fill="#31222C" transform="translate(150.625,140)"/>
<path d="M0 0 C5.75425574 0.63936175 7.75657254 3.44571567 11.25 7.8125 C13.861334 11.00234492 16.86473462 13.58601204 19.99609375 16.25390625 C22.80831639 18.70432247 25.39593512 21.3308335 28 24 C27.67 24.99 27.34 25.98 27 27 C22.10687171 25.47666761 18.89286478 22.6381319 15.125 19.3125 C14.50584717 18.77447754 13.88669434 18.23645508 13.2487793 17.68212891 C9.45990382 14.36468033 5.78879293 10.97122627 2.33203125 7.3046875 C0.82926368 5.75188784 0.82926368 5.75188784 -2 4 C-1.34 2.68 -0.68 1.36 0 0 Z " fill="#31222C" transform="translate(96,29)"/>
<path d="M0 0 C2.97851562 0.43945312 2.97851562 0.43945312 5.95703125 0.87890625 C8.2025342 1.13904799 8.2025342 1.13904799 11 0 C13.72647685 2.35468455 14.98756342 4.5408417 16 8 C15.625 10.3125 15.625 10.3125 15 12 C13.35 12.33 11.7 12.66 10 13 C9.87625 13.969375 9.7525 14.93875 9.625 15.9375 C9.41875 16.948125 9.2125 17.95875 9 19 C8.34 19.33 7.68 19.66 7 20 C5.82685974 17.23174812 4.66129785 14.46071514 3.5 11.6875 C2.99919922 10.50897461 2.99919922 10.50897461 2.48828125 9.30664062 C2.17246094 8.54931641 1.85664063 7.79199219 1.53125 7.01171875 C1.23798828 6.31522217 0.94472656 5.61872559 0.64257812 4.90112305 C0 3 0 3 0 0 Z " fill="#EEEBE3" transform="translate(181,202)"/>
<path d="M0 0 C1.22267578 -0.00386719 2.44535156 -0.00773438 3.70507812 -0.01171875 C4.87876953 -0.01042969 6.05246094 -0.00914063 7.26171875 -0.0078125 C8.32737061 -0.00668457 9.39302246 -0.00555664 10.4909668 -0.00439453 C12.94006855 0.10792042 14.97728518 0.41701827 17.3125 1.125 C17.8075 3.105 17.8075 3.105 18.3125 5.125 C15.56298307 5.34712255 12.81384388 5.55315588 10.0625 5.75 C9.28519531 5.81445312 8.50789063 5.87890625 7.70703125 5.9453125 C6.95292969 5.996875 6.19882813 6.0484375 5.421875 6.1015625 C4.73061523 6.15393066 4.03935547 6.20629883 3.32714844 6.26025391 C0.91519477 6.09832682 -0.54248355 5.20479005 -2.6875 4.125 C-4.8090586 3.85321919 -4.8090586 3.85321919 -7.015625 3.9296875 C-7.81484375 3.93613281 -8.6140625 3.94257813 -9.4375 3.94921875 C-10.2625 3.96597656 -11.0875 3.98273437 -11.9375 4 C-13.19820313 4.01353516 -13.19820313 4.01353516 -14.484375 4.02734375 C-16.55220604 4.05084183 -18.61988995 4.08671092 -20.6875 4.125 C-20.6875 3.135 -20.6875 2.145 -20.6875 1.125 C-13.81499286 -0.15407814 -6.97163459 -0.02226174 0 0 Z " fill="#DF529E" transform="translate(134.6875,14.875)"/>
<path d="M0 0 C3.08089673 2.77280706 4.68775452 5.06326356 6 9 C7.32 8.67 8.64 8.34 10 8 C10 9.65 10 11.3 10 13 C11.65 12.67 13.3 12.34 15 12 C15 12.66 15 13.32 15 14 C13.02 14.66 11.04 15.32 9 16 C9.66 17.98 10.32 19.96 11 22 C9.02 22.99 9.02 22.99 7 24 C7 23.34 7 22.68 7 22 C6.34 22 5.68 22 5 22 C3.95803611 19.65331612 2.94183447 17.30024695 1.9375 14.9375 C1.64294922 14.28072266 1.34839844 13.62394531 1.04492188 12.94726562 C-0.96756096 8.14098308 -1.15797484 5.08847232 0 0 Z " fill="#CECCCD" transform="translate(204,188)"/>
<path d="M0 0 C2.87949674 2.8016725 3.91863338 4.43491846 4.49609375 8.4453125 C4.47675781 9.65960938 4.45742187 10.87390625 4.4375 12.125 C4.43621094 13.34445313 4.43492187 14.56390625 4.43359375 15.8203125 C4 19 4 19 2.75390625 20.875 C0.61735692 22.24543698 -0.98083702 22.59789207 -3.5 22.875 C-4.66015625 23.02582031 -4.66015625 23.02582031 -5.84375 23.1796875 C-8 23 -8 23 -9.7578125 21.93359375 C-11.62179641 19.03210936 -11.39682166 16.60258917 -11.375 13.1875 C-11.38273438 11.98480469 -11.39046875 10.78210938 -11.3984375 9.54296875 C-10.96778749 5.71356134 -10.00477736 3.27120989 -8 0 C-4.99733781 -1.5013311 -3.18669322 -0.8922741 0 0 Z M-7.2265625 2.5546875 C-9.62546432 5.86242436 -9.46795191 8.07736701 -9.375 12.125 C-9.36210937 13.36507812 -9.34921875 14.60515625 -9.3359375 15.8828125 C-9.31898072 19.09919939 -9.31898072 19.09919939 -7 21 C-1.96494948 20.76135558 -1.96494948 20.76135558 2 18 C2.35880863 15.27444654 2.35880863 15.27444654 2.3125 12.1875 C2.32925781 11.14980469 2.34601563 10.11210937 2.36328125 9.04296875 C1.95025644 5.58333081 1.20516457 3.69298878 -1 1 C-4.90599987 0.61833563 -4.90599987 0.61833563 -7.2265625 2.5546875 Z " fill="#DF529E" transform="translate(153,139)"/>
<path d="M0 0 C2.48449415 0.33833559 4.49631718 -0.16380703 6.921875 -0.73828125 C11.09846905 -0.88744532 14.857068 -0.72368901 18.921875 0.26171875 C18.921875 0.92171875 18.921875 1.58171875 18.921875 2.26171875 C15.46789027 3.29927938 12.21363114 3.44516296 8.6171875 3.54296875 C7.39386719 3.58035156 6.17054688 3.61773438 4.91015625 3.65625 C2.99783203 3.70845703 2.99783203 3.70845703 1.046875 3.76171875 C-1.47145984 3.8308897 -3.98969841 3.90368083 -6.5078125 3.98046875 C-7.62397949 4.01076172 -8.74014648 4.04105469 -9.89013672 4.07226562 C-13.01561689 4.25800407 -16.00223269 4.68865037 -19.078125 5.26171875 C-18.748125 4.27171875 -18.418125 3.28171875 -18.078125 2.26171875 C-12.10977271 -0.42403978 -6.3902921 -1.05371838 0 0 Z " fill="#DF529E" transform="translate(139.078125,24.73828125)"/>
<path d="M0 0 C-1.38550828 3.2870477 -2.84068329 4.90210594 -5.75 6.9375 C-9.30712895 9.48850671 -12.66524432 12.16545767 -16 15 C-16.99 12.03 -17.98 9.06 -19 6 C-16.96539231 4.98571486 -14.92195394 3.98913211 -12.875 3 C-11.16957031 2.1646875 -11.16957031 2.1646875 -9.4296875 1.3125 C-5.98680467 -0.00504969 -3.64330238 -0.26577282 0 0 Z " fill="#C98191" transform="translate(232,198)"/>
<path d="M0 0 C3.11610753 1.47605093 4.47618713 3.27678069 6.375 6.125 C7.98316725 10.94950176 8.17974053 15.3143338 6.125 19.9375 C4.28519526 22.23725593 3.00229514 23.77381964 0.375 25.125 C-2.63357889 25.00220086 -4.72498253 24.70510605 -7.2734375 23.0625 C-9.39430381 20.02218297 -9.17783448 16.82624189 -9.1875 13.25 C-9.22423828 12.54230469 -9.26097656 11.83460938 -9.29882812 11.10546875 C-9.32326465 8.18937714 -9.19382783 5.84209536 -7.34179688 3.50732422 C-4.91604808 1.39560994 -3.25792753 0.15513941 0 0 Z M-5.3125 3.875 C-8.36117316 8.15962174 -8.14501247 11.24374977 -8.09375 16.3828125 C-7.57552888 19.41440604 -7.0698217 20.33409447 -4.625 22.125 C-2.21617313 23.12343776 -2.21617313 23.12343776 0.375 23.125 C3.49556696 21.39135169 4.22831791 20.56504627 5.375 17.125 C5.88407681 13.30692395 6.19641742 9.68537596 4.36328125 6.203125 C2.94528795 4.32309061 2.94528795 4.32309061 0.375 2.125 C-2.74050894 1.85216341 -2.74050894 1.85216341 -5.3125 3.875 Z " fill="#DF529E" transform="translate(129.625,136.875)"/>
<path d="M0 0 C1.4070473 2.6264883 2.62816493 5.02531947 3 8 C2.0625 10.25 2.0625 10.25 1 12 C-6.2715736 11.51522843 -6.2715736 11.51522843 -9.5625 9.1875 C-11 7 -11 7 -10.58984375 4.86328125 C-10.39519531 4.24839844 -10.20054687 3.63351563 -10 3 C-9.04287109 2.80083984 -9.04287109 2.80083984 -8.06640625 2.59765625 C-7.24011719 2.42105469 -6.41382813 2.24445313 -5.5625 2.0625 C-4.73878906 1.88847656 -3.91507812 1.71445313 -3.06640625 1.53515625 C-1.02338796 1.19247006 -1.02338796 1.19247006 0 0 Z " fill="#E5D4A6" transform="translate(274,193)"/>
<path d="M0 0 C2.91270812 4.36906218 3.54122713 6.67793321 3 12 C0.8272578 14.63016161 -0.94673788 16.47336894 -4 18 C-4.81462495 13.34500026 -5.43393721 8.69023454 -6 4 C-5.67 4.66 -5.34 5.32 -5 6 C-1.62911733 3.72584713 -1.62911733 3.72584713 0 0 Z " fill="#AD9C80" transform="translate(280,185)"/>
<path d="M0 0 C0 1.65 0 3.3 0 5 C0.61875 4.34 1.2375 3.68 1.875 3 C4 1 4 1 6 1 C6.66 3.31 7.32 5.62 8 8 C7.01 8.495 7.01 8.495 6 9 C5.01 8.67 4.02 8.34 3 8 C3 9.32 3 10.64 3 12 C2.01 12.33 1.02 12.66 0 13 C-0.33 12.01 -0.66 11.02 -1 10 C-1.99 10.66 -2.98 11.32 -4 12 C-4.66 10.35 -5.32 8.7 -6 7 C-4.35 7 -2.7 7 -1 7 C-2.32 5.35 -3.64 3.7 -5 2 C-2 0 -2 0 0 0 Z " fill="#EDECE8" transform="translate(174,209)"/>
<path d="M0 0 C1.37961914 0.00290039 1.37961914 0.00290039 2.78710938 0.00585938 C4.22473633 0.02422852 4.22473633 0.02422852 5.69140625 0.04296875 C6.64595703 0.04361328 7.60050781 0.04425781 8.58398438 0.04492188 C12.65017462 0.07053119 16.32528449 0.0959611 20.25390625 1.23046875 C20.25390625 2.22046875 20.25390625 3.21046875 20.25390625 4.23046875 C14.64390625 4.23046875 9.03390625 4.23046875 3.25390625 4.23046875 C3.25390625 3.57046875 3.25390625 2.91046875 3.25390625 2.23046875 C-0.37609375 2.23046875 -4.00609375 2.23046875 -7.74609375 2.23046875 C-4.53406046 0.08911322 -3.69215518 -0.01809011 0 0 Z " fill="#E3D2A5" transform="translate(236.74609375,194.76953125)"/>
<path d="M0 0 C1.32 0.66 2.64 1.32 4 2 C3.34 2 2.68 2 2 2 C2.77537109 3.78857422 2.77537109 3.78857422 3.56640625 5.61328125 C4.23227272 7.17947422 4.8976099 8.74589229 5.5625 10.3125 C5.90474609 11.09818359 6.24699219 11.88386719 6.59960938 12.69335938 C6.91865234 13.45068359 7.23769531 14.20800781 7.56640625 14.98828125 C7.86490479 15.68477783 8.16340332 16.38127441 8.47094727 17.09887695 C9 19 9 19 8 22 C8 21.34 8 20.68 8 20 C7.01 20.33 6.02 20.66 5 21 C2.8125 19.5625 2.8125 19.5625 1 18 C1.33 17.01 1.66 16.02 2 15 C1.60602665 12.36195411 1.60602665 12.36195411 1 10 C0.34 10 -0.32 10 -1 10 C-1.33 10.66 -1.66 11.32 -2 12 C-2 11.01 -2 10.02 -2 9 C-1.34 9 -0.68 9 0 9 C0 6.03 0 3.06 0 0 Z " fill="#72676B" transform="translate(179,200)"/>
<path d="M0 0 C0.33 0.66 0.66 1.32 1 2 C0.6803125 2.72058594 0.360625 3.44117187 0.03125 4.18359375 C-1.27559586 7.752669 -0.91829477 10.30186918 -0.5 14.0625 C0.3224387 21.47235637 0.3224387 21.47235637 -2 25 C-4.46081302 22.53918698 -4.57742368 21.07732258 -5.1875 17.6875 C-5.45626953 16.27017578 -5.45626953 16.27017578 -5.73046875 14.82421875 C-6.18434642 10.06837015 -5.32619069 6.9650186 -2.4375 3.1875 C-1.98246094 2.58292969 -1.52742187 1.97835937 -1.05859375 1.35546875 C-0.53458984 0.68451172 -0.53458984 0.68451172 0 0 Z " fill="#DF529E" transform="translate(250,85)"/>
<path d="M0 0 C2.98086944 0.33120772 4.7214516 0.7869924 7.125 2.625 C10.08477981 6.37405442 12 10.18372487 12 15 C11.34 15 10.68 15 10 15 C10 16.98 10 18.96 10 21 C9.67 21 9.34 21 9 21 C8.67 18.36 8.34 15.72 8 13 C7.34 13 6.68 13 6 13 C6 12.34 6 11.68 6 11 C5.34 11 4.68 11 4 11 C4 8.69 4 6.38 4 4 C3.34 4 2.68 4 2 4 C2 3.01 2 2.02 2 1 C1.34 0.67 0.68 0.34 0 0 Z " fill="#C8C5C7" transform="translate(191,196)"/>
<path d="M0 0 C1.81177734 0.13535156 1.81177734 0.13535156 3.66015625 0.2734375 C6.20740237 0.54668202 8.49036149 0.9048944 10.9375 1.625 C10.9375 2.285 10.9375 2.945 10.9375 3.625 C3.20041674 3.74652487 -4.369859 3.47300767 -12.0625 2.625 C-12.0625 1.965 -12.0625 1.305 -12.0625 0.625 C-7.90198334 -0.43289228 -4.26709528 -0.33771663 0 0 Z " fill="#DF529E" transform="translate(141.0625,35.375)"/>
<path d="M0 0 C0.99 0.33 1.98 0.66 3 1 C3 2.32 3 3.64 3 5 C4.65 4.67 6.3 4.34 8 4 C8 4.66 8 5.32 8 6 C5.35261084 7.4606285 4.10551666 8 1 8 C0.67 5.36 0.34 2.72 0 0 Z " fill="#D9C79D" transform="translate(211,196)"/>
<path d="M0 0 C1.5625 1.25 1.5625 1.25 3 3 C2.6828368 6.171632 1.22070812 9.07030051 0 12 C-1.125 10.5 -1.125 10.5 -2 8 C-1.57598348 5.2226918 -0.81108065 2.70360217 0 0 Z " fill="#B24580" transform="translate(249,149)"/>
<path d="M0 0 C3.71134205 3.1994328 5.42930118 6.3705719 7 11 C6.57421875 13.21875 6.57421875 13.21875 6 15 C4.99539469 12.87717331 3.99644398 10.75166979 3 8.625 C2.443125 7.44164062 1.88625 6.25828125 1.3125 5.0390625 C0 2 0 2 0 0 Z " fill="#EDECE8" transform="translate(198,197)"/>
<path d="M0 0 C1.32 0 2.64 0 4 0 C3.67 1.65 3.34 3.3 3 5 C2.01 5.33 1.02 5.66 0 6 C0 4.02 0 2.04 0 0 Z " fill="#D7C69C" transform="translate(258,197)"/>
</svg>
